<?xml version="1.0" standalone="no"?>
<!DOCTYPE svg PUBLIC "-//W3C//DTD SVG 20010904//EN"
 "http://www.w3.org/TR/2001/REC-SVG-20010904/DTD/svg10.dtd">
<svg version="1.0" xmlns="http://www.w3.org/2000/svg"
 width="1280.000000pt" height="640.000000pt" viewBox="0 0 1280.000000 640.000000"
 preserveAspectRatio="xMidYMid meet">
<metadata>
Created by potrace 1.15, written by Peter Selinger 2001-2017
</metadata>
<g transform="translate(0.000000,640.000000) scale(0.100000,-0.100000)"
fill="#3d3c4e" stroke="none">
<path d="M2878 4500 c-9 -44 -21 -255 -22 -381 -1 -57 -6 -102 -13 -111 -8 -9
-9 -19 -3 -28 13 -21 12 -166 -1 -272 -9 -71 -15 -89 -30 -93 -11 -4 -19 -15
-19 -26 0 -11 -7 -19 -16 -19 -13 0 -15 -12 -12 -67 3 -67 7 -73 52 -87 17 -6
18 -16 12 -184 -13 -364 -15 -373 -69 -353 -40 15 -72 8 -75 -16 -3 -17 -10
-23 -28 -23 -22 0 -24 4 -24 51 l0 51 47 -4 c28 -2 48 1 50 8 4 12 -55 19
-274 30 l-123 7 0 32 c0 30 3 32 55 45 63 15 66 32 3 19 -101 -21 -127 -31
-121 -46 4 -10 9 -11 16 -4 19 19 27 12 27 -24 0 -32 -2 -35 -30 -35 -28 0
-30 -2 -30 -38 0 -21 -7 -47 -15 -59 -8 -12 -11 -24 -6 -27 4 -3 8 -89 9 -191
0 -145 -3 -185 -13 -185 -7 0 -16 -8 -19 -17 -3 -10 -13 -29 -21 -43 -8 -14
-16 -29 -18 -33 -2 -8 -13 -5 -82 24 -11 4 -29 9 -40 11 -17 3 -20 12 -23 66
-2 46 -7 62 -17 62 -11 0 -15 12 -15 39 0 43 -13 59 -34 42 -7 -6 -16 -8 -19
-4 -4 3 -7 1 -7 -4 0 -7 -19 -11 -43 -11 -54 1 -67 -6 -67 -38 0 -20 -4 -25
-22 -22 -31 4 -44 64 -17 71 27 7 26 67 0 74 -12 3 -21 15 -23 32 -3 25 -5 26
-68 27 -36 0 -71 3 -77 7 -12 7 -23 -13 -23 -43 0 -10 -9 -22 -20 -25 -23 -7
-28 -53 -8 -73 9 -9 3 -12 -27 -12 -26 0 -46 -7 -63 -22 -26 -25 -49 -26 -422
-19 -169 3 -381 -8 -397 -21 -6 -5 -24 -8 -40 -7 -15 1 -50 1 -76 1 -40 -2
-50 -6 -54 -22 -3 -11 -11 -20 -17 -20 -7 0 -21 -8 -32 -18 -10 -10 -27 -21
-37 -25 -16 -6 -17 -18 -11 -162 6 -133 5 -155 -8 -155 -8 0 -17 3 -20 6 -4 3
-31 7 -62 9 -55 3 -56 3 -56 -25 0 -57 -12 -90 -32 -90 -11 0 -27 7 -35 16
-12 11 -26 14 -52 9 -20 -4 -37 -11 -39 -16 -2 -5 -21 -9 -43 -9 l-39 0 0 -80
0 -80 6400 0 6400 0 0 165 c0 164 0 165 -22 166 -40 2 -63 -3 -70 -15 -6 -8
-13 -8 -28 1 -11 7 -37 13 -59 13 -22 0 -44 6 -51 15 -7 8 -25 15 -40 15 -15
0 -35 9 -46 21 -14 16 -28 20 -56 17 l-38 -4 -1 46 c-2 79 1 75 -55 75 -55 0
-84 -19 -84 -54 0 -12 -4 -21 -10 -21 -5 0 -10 -13 -10 -30 0 -16 -4 -30 -10
-30 -5 0 -10 -8 -10 -18 0 -14 -8 -17 -47 -17 -27 1 -60 5 -75 9 l-28 8 0 -55
c0 -31 -3 -58 -7 -60 -18 -10 -73 6 -78 23 -3 10 -21 28 -40 39 -30 17 -33 24
-29 54 3 27 0 36 -19 45 -12 7 -35 11 -52 10 -29 -3 -30 -2 -33 47 -4 63 -15
75 -68 75 l-44 0 0 109 c0 89 -3 110 -16 115 -8 3 -13 10 -10 15 3 5 0 11 -8
14 -30 12 1 105 73 217 9 13 11 21 4 17 -6 -4 -28 -36 -47 -72 -38 -67 -56
-87 -56 -61 0 26 -15 18 -16 -9 -1 -14 2 -25 7 -25 5 0 9 -16 9 -35 l0 -35
-70 3 -70 4 0 -78 c0 -43 -4 -80 -9 -84 -6 -3 -13 -26 -17 -50 -7 -50 -22 -67
-36 -41 -5 9 -15 16 -22 16 -7 0 -18 11 -23 23 -10 22 -17 24 -73 22 -47 -1
-65 -6 -72 -18 -7 -13 -23 -17 -68 -17 -32 0 -62 -5 -65 -10 -4 -6 -8 -27 -11
-48 -7 -65 -13 -79 -35 -85 -19 -5 -21 -11 -15 -41 l7 -36 -46 0 c-35 0 -45 4
-45 16 0 47 -99 72 -148 38 -17 -12 -22 -25 -22 -60 0 -44 0 -44 -35 -44 -30
0 -35 3 -35 23 0 25 -23 41 -72 51 -21 5 -26 11 -23 32 1 15 -4 38 -11 53 -8
14 -14 38 -14 54 0 15 -4 27 -10 27 -5 0 -10 21 -10 48 0 26 -7 55 -14 65 -16
21 -77 33 -103 21 -17 -7 -29 -9 -75 -13 -14 -1 -18 -10 -18 -46 0 -25 -3 -45
-7 -45 -11 0 -33 -50 -33 -72 0 -10 -4 -18 -10 -18 -5 0 -10 -16 -10 -35 0
-24 -5 -35 -15 -35 -12 0 -15 28 -17 172 l-3 173 -50 2 c-27 2 -78 5 -112 9
l-63 6 0 63 c0 48 -4 64 -16 69 -22 8 -177 7 -190 -2 -18 -12 -23 -50 -25
-235 l-3 -178 -31 3 c-25 3 -31 8 -33 33 -5 43 -22 56 -22 18 0 -18 -4 -34 -8
-37 -11 -7 -37 11 -37 26 -1 7 -11 34 -23 61 l-21 47 -85 0 c-46 0 -91 -3
-100 -6 -19 -7 -51 -74 -66 -142 -9 -40 -16 -52 -27 -48 -8 3 -17 6 -19 6 -2
0 -4 65 -4 143 0 144 0 144 -25 155 -14 6 -25 16 -25 22 0 5 -20 10 -44 10
-35 0 -45 -4 -49 -20 -4 -15 -14 -20 -36 -20 l-31 0 0 -110 0 -110 -35 0 c-24
0 -37 -6 -45 -20 -8 -15 -21 -20 -55 -20 -38 0 -44 -3 -47 -22 -2 -19 -9 -23
-32 -21 -17 1 -34 9 -38 18 -5 8 -16 15 -25 15 -14 0 -15 17 -11 135 l5 135
-38 0 c-21 0 -41 5 -44 10 -3 6 -28 10 -55 10 -27 0 -52 -4 -55 -10 -3 -5 -42
-10 -86 -10 -77 0 -79 -1 -79 -24 0 -23 -4 -24 -77 -28 -43 -2 -80 0 -81 4 -6
15 -21 -2 -16 -17 7 -17 -18 -45 -40 -45 -12 0 -14 20 -13 125 2 93 -1 126
-10 130 -10 3 -13 43 -13 159 l0 154 -32 5 c-18 4 -73 7 -123 9 l-90 2 -5 201
-5 200 -75 9 c-41 6 -145 10 -230 10 l-155 1 -3 -267 -2 -267 -28 -3 -27 -3
-8 -145 c-4 -80 -6 -156 -3 -170 4 -23 3 -24 -10 -5 -8 10 -14 29 -14 42 0 15
-6 23 -18 23 -10 0 -27 7 -39 15 -18 13 -25 13 -61 -3 -46 -19 -47 -23 -67
-157 -7 -53 -13 -75 -14 -52 -1 30 -6 39 -26 47 l-25 10 0 370 c0 361 0 370
-20 370 -17 0 -19 8 -22 72 l-3 72 -45 9 c-75 14 -80 26 -80 198 0 93 -4 149
-10 149 -6 0 -10 -38 -11 -92 -1 -51 -4 -118 -7 -148 l-7 -55 -37 0 c-42 -1
-40 -6 -43 95 -1 36 -3 97 -5 135 l-3 70 -7 -60 c-4 -33 -7 -86 -5 -118 1 -31
-2 -60 -6 -63 -5 -3 -9 -17 -9 -32 0 -15 -6 -34 -13 -42 -13 -17 -70 -46 -102
-52 -18 -3 -21 -15 -30 -122 l-10 -118 -48 -4 c-26 -2 -53 -6 -59 -10 -15 -9
-73 -14 -228 -18 -74 -2 -141 -5 -149 -7 -9 -3 -17 8 -23 29 -9 33 -23 42 -31
20 -3 -9 -13 -4 -29 14 -13 16 -36 28 -53 30 -22 2 -31 9 -35 28 -3 14 -14 26
-25 28 -11 2 -28 14 -37 25 l-18 22 -17 -22 c-10 -11 -27 -23 -38 -25 -15 -2
-21 -12 -23 -41 -2 -22 -10 -41 -18 -44 -8 -3 -14 -19 -14 -39 0 -22 -6 -37
-15 -40 -9 -4 -15 -19 -15 -40 0 -18 -6 -37 -14 -41 -9 -5 -16 -28 -18 -63
l-3 -55 -87 3 c-54 2 -88 0 -88 -6 0 -11 -26 -18 -112 -27 l-58 -6 0 -290 0
-289 -27 0 c-29 0 -54 -11 -56 -25 -2 -11 -57 -13 -57 -2 0 4 -9 7 -21 7 -32
0 -59 19 -59 40 0 11 -4 20 -9 20 -5 0 -13 10 -17 23 -4 12 -17 36 -29 52 -13
17 -25 39 -26 49 -6 29 -29 32 -29 4 -1 -41 -22 -58 -63 -51 -34 5 -37 8 -37
39 l0 34 -64 0 -64 0 -8 68 -9 67 -37 3 c-38 3 -38 3 -38 48 0 57 -13 62 -165
65 -103 1 -117 -1 -133 -18 -9 -11 -32 -23 -49 -26 l-33 -6 0 65 0 65 -47 -6
c-27 -4 -55 -15 -64 -25 -8 -9 -24 -20 -35 -24 -10 -4 -31 -17 -46 -31 -26
-22 -28 -29 -28 -105 0 -44 -3 -80 -7 -81 -5 0 -18 -2 -30 -5 -22 -4 -23 -1
-23 52 0 47 -3 57 -20 61 -11 3 -20 9 -20 13 0 4 -22 13 -48 20 -52 12 -218
-2 -237 -21 -5 -5 -17 -9 -27 -9 -14 0 -18 -8 -18 -34 0 -35 -12 -46 -42 -38
-16 4 -18 21 -18 173 l0 169 -26 -6 c-25 -6 -26 -5 -22 25 3 18 1 34 -4 37 -4
3 -8 14 -8 25 0 20 -34 28 -44 10 -3 -5 -32 -9 -63 -10 -32 0 -59 -5 -61 -11
-2 -5 -19 -10 -37 -10 -30 0 -33 -3 -39 -35 -4 -19 -13 -35 -19 -35 -10 0 -13
-44 -14 -182 -3 -264 -3 -276 -12 -253 -4 11 -19 22 -32 25 -23 6 -23 9 -26
120 -4 180 -11 252 -25 261 -7 5 -25 9 -40 9 -16 0 -28 5 -28 11 0 24 -36 38
-93 39 -49 0 -60 -3 -64 -19 -3 -14 -17 -20 -53 -25 -38 -5 -48 -10 -43 -21 3
-9 0 -22 -7 -30 -10 -12 -10 -15 1 -15 11 0 11 -2 -1 -10 -12 -8 -12 -10 -1
-10 11 0 11 -3 1 -15 -10 -12 -10 -15 1 -15 11 0 11 -2 -1 -10 -13 -9 -13 -10
0 -10 13 0 13 -1 0 -10 -8 -5 -10 -10 -5 -10 11 0 14 -134 3 -145 -13 -13 -18
59 -28 370 -13 411 -13 395 8 401 36 11 47 22 48 45 0 13 4 38 8 55 5 24 3 36
-11 50 -10 9 -19 21 -19 26 -1 4 -2 13 -3 18 0 6 -7 10 -15 10 -8 0 -17 15
-21 38 -12 65 -17 300 -7 318 6 11 6 26 1 38 -5 12 -12 134 -17 271 -4 138
-11 234 -14 215z m-290 -1556 c20 -4 22 -10 22 -60 0 -48 -2 -55 -15 -44 -8 7
-20 8 -27 4 -7 -5 -20 -7 -30 -6 -9 2 -19 -2 -23 -8 -8 -12 -45 -13 -45 -1 0
5 6 11 13 14 10 4 10 7 0 18 -12 12 -18 80 -9 90 5 5 79 1 114 -7z m-87 -213
c0 -36 1 -92 2 -124 2 -46 -1 -57 -13 -55 -12 3 -15 26 -17 130 -1 106 1 126
13 121 10 -4 14 -24 15 -72z"/>
</g>
</svg>
